<?xml version="1.0" encoding="UTF-8"?>
<svg id="Livello_1" data-name="Livello 1" xmlns="http://www.w3.org/2000/svg" viewBox="0 0 238.2 357.3">
  <defs>
    <style>
      .cls-1 {
        fill: #a05;
      }
    </style>
  </defs>
  <path class="cls-1" d="M179.38,119.1c32.49,0,58.82,26.33,58.82,58.82v119.83c0,33.78-28.14,61.01-62.27,59.49-31.95-1.42-56.83-28.37-56.83-60.35v-118.24c0-16.45-6.66-31.33-17.44-42.11-10.78-10.78-25.66-17.44-42.11-17.44C26.66,119.1,0,92.43,0,59.55c0-16.45,6.66-31.33,17.44-42.11C28.22,6.66,43.1,0,59.55,0s31.33,6.66,42.11,17.44c10.8,10.8,17.47,25.72,17.44,42.21-.05,32.67,25.76,59.45,58.43,59.45h1.85Z"/>
</svg>