<?xml version="1.0" encoding="UTF-8"?>
<svg id="Livello_1" data-name="Livello 1" xmlns="http://www.w3.org/2000/svg" viewBox="0 0 357.3 357.3">
  <defs>
    <style>
      .cls-1 {
        fill: #50a;
      }
    </style>
  </defs>
  <path class="cls-1" d="M357.3,59.55v119.1c0,32.89-26.66,59.55-59.55,59.55-16.44,0-31.33,6.67-42.11,17.44-10.77,10.78-17.44,25.67-17.44,42.11,0,32.89-26.66,59.55-59.55,59.55H59.55c-32.89,0-59.55-26.66-59.55-59.55v-119.1c0-32.89,26.66-59.55,59.55-59.55h119.1c16.44,0,31.33-6.67,42.11-17.44,10.77-10.78,17.44-25.67,17.44-42.11,0-32.89,26.66-59.55,59.55-59.55,16.44,0,31.33,6.67,42.11,17.44,10.77,10.78,17.44,25.67,17.44,42.11Z"/>
</svg>