<?xml version="1.0" encoding="UTF-8"?>
<svg id="Livello_1" data-name="Livello 1" xmlns="http://www.w3.org/2000/svg" viewBox="0 0 357.3 357.3">
  <defs>
    <style>
      .cls-1 {
        fill: #71008e;
      }
    </style>
  </defs>
  <path class="cls-1" d="M357.3,59.55v119.1c0,32.89-26.66,59.55-59.55,59.55-16.45,0-31.33,6.67-42.11,17.45-10.78,10.77-17.44,25.66-17.44,42.1,0,32.89-26.66,59.55-59.55,59.55s-59.55-26.66-59.55-59.55c0-16.44-6.66-31.33-17.44-42.1-10.78-10.78-25.66-17.45-42.11-17.45-32.89,0-59.55-26.66-59.55-59.55,0-16.44,6.66-31.33,17.44-42.1,10.78-10.78,25.66-17.45,42.11-17.45s31.33-6.67,42.11-17.44c10.78-10.78,17.44-25.67,17.44-42.11C119.1,26.67,145.76,0,178.65,0h119.1c32.89,0,59.55,26.67,59.55,59.55Z"/>
</svg>