<?xml version="1.0" encoding="UTF-8"?>
<svg id="Livello_1" data-name="Livello 1" xmlns="http://www.w3.org/2000/svg" viewBox="0 0 237.77 238.2">
  <defs>
    <style>
      .cls-1 {
        fill: #8e0071;
      }

      .cls-2 {
        fill: red;
      }
    </style>
  </defs>
  <path class="cls-1" d="M178.22.22h-59.12v-.22h-59.55C26.66,0,0,26.66,0,59.55v119.1c0,32.89,26.66,59.55,59.55,59.55,31.18,0,56.76-23.96,59.34-54.48-.15-1.67-.22-3.36-.22-5.07,0-2.42.14-4.81.43-7.15,1.62-13.59,7.82-25.77,17.01-34.96,9.65-9.65,22.58-16,36.99-17.22,1.69-.15,3.39-.22,5.12-.22,1.2,0,2.39.04,3.57.11,15.03-.88,28.55-7.34,38.54-17.33,10.78-10.78,17.44-25.66,17.44-42.11C237.77,26.89,211.11.22,178.22.22ZM118.67,119.32v-.22h.43v.22h-.43Z"/>
  <rect class="cls-2" x="118.67" y="119.1" width=".43" height=".22"/>
  <path class="cls-2" d="M181.79,119.21c-1.18.07-2.37.11-3.57.11h-5.12c1.69-.15,3.39-.22,5.12-.22,1.2,0,2.39.04,3.57.11Z"/>
  <rect class="cls-2" x="118.67" y="119.1" width=".43" height=".22"/>
  <path class="cls-2" d="M118.67,178.65c0-2.42.14-4.81.43-7.15v7.15c0,1.71-.07,3.4-.21,5.07-.15-1.67-.22-3.36-.22-5.07Z"/>
</svg>