<?xml version="1.0" encoding="UTF-8"?>
<svg id="Livello_1" data-name="Livello 1" xmlns="http://www.w3.org/2000/svg" viewBox="0 0 357.3 238.2">
  <defs>
    <style>
      .cls-1 {
        fill: #3900c6;
      }
    </style>
  </defs>
  <path class="cls-1" d="M357.3,178.65c0,16.44-6.66,31.33-17.44,42.11-10.78,10.77-25.66,17.44-42.11,17.44h-119.1c-32.89,0-59.55-26.66-59.55-59.55,0-16.44-6.66-31.33-17.44-42.11-10.78-10.77-25.66-17.44-42.11-17.44C26.66,119.1,0,92.44,0,59.55c0-16.44,6.66-31.33,17.44-42.11C28.22,6.67,43.1,0,59.55,0h119.1c32.89,0,59.55,26.66,59.55,59.55s26.66,59.55,59.55,59.55,59.55,26.66,59.55,59.55Z"/>
</svg>